<svg xmlns="http://www.w3.org/2000/svg" xmlns:xlink="http://www.w3.org/1999/xlink" width="1080" zoomAndPan="magnify" viewBox="0 0 810 809.999993" height="1080" preserveAspectRatio="xMidYMid meet" version="1.0"><defs><clipPath id="200cfbd3bc"><path d="M 394.316406 394.316406 L 415.683594 394.316406 L 415.683594 415.683594 L 394.316406 415.683594 Z M 394.316406 394.316406 " clip-rule="nonzero"/></clipPath><clipPath id="ec16e1b877"><path d="M 405 394.316406 C 399.097656 394.316406 394.316406 399.097656 394.316406 405 C 394.316406 410.902344 399.097656 415.683594 405 415.683594 C 410.902344 415.683594 415.683594 410.902344 415.683594 405 C 415.683594 399.097656 410.902344 394.316406 405 394.316406 Z M 405 394.316406 " clip-rule="nonzero"/></clipPath></defs><path stroke-linecap="round" transform="matrix(0.00273692, 0.749995, -0.749995, 0.00273692, 406.307935, 45.332677)" fill="none" stroke-linejoin="miter" d="M 28.002173 3.502374 L 931.10725 3.501139 " stroke="#000000" stroke-width="7" stroke-opacity="1" stroke-miterlimit="4"/><path stroke-linecap="round" transform="matrix(0.00273692, 0.749995, -0.749995, 0.00273692, 406.307935, 45.332677)" fill-opacity="1" fill="#000000" fill-rule="nonzero" stroke-linejoin="round" d="M 3.50201 3.501508 C 3.50235 -2.300613 8.201831 -7.002245 13.998744 -7.001924 C 19.800865 -7.001584 24.502479 -2.296895 24.502158 3.500018 C 24.501837 9.296931 19.797148 13.998544 14.000234 13.998223 C 8.203321 13.997902 3.501689 9.298422 3.50201 3.501508 " stroke="#000000" stroke-width="7" stroke-opacity="1" stroke-miterlimit="4"/><path stroke-linecap="round" transform="matrix(0.00273692, 0.749995, -0.749995, 0.00273692, 406.307935, 45.332677)" fill-opacity="1" fill="#000000" fill-rule="nonzero" stroke-linejoin="round" d="M 955.607413 3.502004 C 955.607092 9.298917 950.902402 14.00053 945.105489 14.00021 C 939.308576 13.999889 934.606944 9.300408 934.607284 3.498286 C 934.607605 -2.298627 939.307086 -7.000259 945.103999 -6.999938 C 950.90612 -6.999598 955.607753 -2.300117 955.607413 3.502004 " stroke="#000000" stroke-width="7" stroke-opacity="1" stroke-miterlimit="4"/><g clip-path="url(#200cfbd3bc)"><g clip-path="url(#ec16e1b877)"><path fill="#000000" d="M 394.316406 394.316406 L 415.683594 394.316406 L 415.683594 415.683594 L 394.316406 415.683594 Z M 394.316406 394.316406 " fill-opacity="1" fill-rule="nonzero"/></g></g></svg>