<svg xmlns="http://www.w3.org/2000/svg" xmlns:xlink="http://www.w3.org/1999/xlink" width="1080" zoomAndPan="magnify" viewBox="0 0 810 809.999993" height="1080" preserveAspectRatio="xMidYMid meet" version="1.0"><defs><clipPath id="32df15ba1a"><path d="M 392.148438 394.316406 L 417.851562 394.316406 L 417.851562 420.015625 L 392.148438 420.015625 Z M 392.148438 394.316406 " clip-rule="nonzero"/></clipPath><clipPath id="6f31c59511"><path d="M 405 394.316406 C 397.902344 394.316406 392.148438 400.070312 392.148438 407.164062 C 392.148438 414.261719 397.902344 420.015625 405 420.015625 C 412.097656 420.015625 417.851562 414.261719 417.851562 407.164062 C 417.851562 400.070312 412.097656 394.316406 405 394.316406 Z M 405 394.316406 " clip-rule="nonzero"/></clipPath><clipPath id="2d7eed30cb"><path d="M 392.148438 738.960938 L 417.851562 738.960938 L 417.851562 764.664062 L 392.148438 764.664062 Z M 392.148438 738.960938 " clip-rule="nonzero"/></clipPath><clipPath id="5d969af630"><path d="M 405 738.960938 C 397.902344 738.960938 392.148438 744.714844 392.148438 751.8125 C 392.148438 758.910156 397.902344 764.664062 405 764.664062 C 412.097656 764.664062 417.851562 758.910156 417.851562 751.8125 C 417.851562 744.714844 412.097656 738.960938 405 738.960938 Z M 405 738.960938 " clip-rule="nonzero"/></clipPath><clipPath id="a9450648b4"><path d="M 392.148438 45.335938 L 417.851562 45.335938 L 417.851562 71.039062 L 392.148438 71.039062 Z M 392.148438 45.335938 " clip-rule="nonzero"/></clipPath><clipPath id="d4a1fb9f9b"><path d="M 405 45.335938 C 397.902344 45.335938 392.148438 51.089844 392.148438 58.1875 C 392.148438 65.285156 397.902344 71.039062 405 71.039062 C 412.097656 71.039062 417.851562 65.285156 417.851562 58.1875 C 417.851562 51.089844 412.097656 45.335938 405 45.335938 Z M 405 45.335938 " clip-rule="nonzero"/></clipPath></defs><path stroke-linecap="round" transform="matrix(0.00273692, 0.749995, -0.749995, 0.00273692, 404.808007, 45.334031)" fill="none" stroke-linejoin="miter" d="M 12.002353 1.501361 L 947.107639 1.502319 " stroke="#000000" stroke-width="3" stroke-opacity="1" stroke-miterlimit="4"/><path stroke-linecap="round" transform="matrix(0.00273692, 0.749995, -0.749995, 0.00273692, 404.808007, 45.334031)" fill-opacity="1" fill="#000000" fill-rule="nonzero" stroke-linejoin="round" d="M 1.502289 1.499502 C 1.500939 -0.984895 3.513508 -2.998398 5.997905 -2.999748 C 8.48751 -3.00108 10.500994 -0.983302 10.502344 1.501095 C 10.498486 3.985473 8.485917 5.998976 6.00152 6.000326 C 3.517123 6.001677 1.498431 3.98388 1.502289 1.499502 " stroke="#000000" stroke-width="3" stroke-opacity="1" stroke-miterlimit="4"/><path stroke-linecap="round" transform="matrix(0.00273692, 0.749995, -0.749995, 0.00273692, 404.808007, 45.334031)" fill-opacity="1" fill="#000000" fill-rule="nonzero" stroke-linejoin="round" d="M 957.607723 1.49897 C 957.603865 3.983347 955.591276 6.002058 953.106898 5.9982 C 950.622502 5.999551 948.603791 3.986962 948.607648 1.502585 C 948.606317 -0.987021 950.618887 -3.000523 953.103283 -3.001874 C 955.592869 -2.997997 957.606372 -0.985427 957.607723 1.49897 " stroke="#000000" stroke-width="3" stroke-opacity="1" stroke-miterlimit="4"/><g clip-path="url(#32df15ba1a)"><g clip-path="url(#6f31c59511)"><path fill="#000000" d="M 392.148438 394.316406 L 417.851562 394.316406 L 417.851562 420.015625 L 392.148438 420.015625 Z M 392.148438 394.316406 " fill-opacity="1" fill-rule="nonzero"/></g></g><g clip-path="url(#2d7eed30cb)"><g clip-path="url(#5d969af630)"><path fill="#000000" d="M 392.148438 738.960938 L 417.851562 738.960938 L 417.851562 764.664062 L 392.148438 764.664062 Z M 392.148438 738.960938 " fill-opacity="1" fill-rule="nonzero"/></g></g><g clip-path="url(#a9450648b4)"><g clip-path="url(#d4a1fb9f9b)"><path fill="#000000" d="M 392.148438 45.335938 L 417.851562 45.335938 L 417.851562 71.039062 L 392.148438 71.039062 Z M 392.148438 45.335938 " fill-opacity="1" fill-rule="nonzero"/></g></g></svg>