<svg xmlns="http://www.w3.org/2000/svg" xmlns:xlink="http://www.w3.org/1999/xlink" width="1080" zoomAndPan="magnify" viewBox="0 0 810 809.999993" height="1080" preserveAspectRatio="xMidYMid meet" version="1.0"><defs><g/></defs><rect x="-81" width="972" fill="#ffffff" y="-80.999999" height="971.999992" fill-opacity="1"/><rect x="-81" width="972" fill="#ffffff" y="-80.999999" height="971.999992" fill-opacity="1"/><g fill="#000000" fill-opacity="1"><g transform="translate(36.405917, 432.683348)"><g><path d="M 3.679688 0 L 19.886719 0 C 36.097656 0 44.375 -7.933594 44.375 -24.714844 L 44.375 -82.195312 L 27.707031 -82.195312 L 27.707031 -24.714844 C 27.707031 -20.117188 24.140625 -16.4375 19.429688 -16.4375 L 3.679688 -16.4375 Z M 3.679688 0 "/></g></g></g><g fill="#000000" fill-opacity="1"><g transform="translate(89.857331, 432.683348)"><g><path d="M 48.742188 1.148438 C 105.304688 1.148438 105.304688 -83.574219 48.742188 -83.574219 C -7.816406 -83.574219 -7.816406 1.148438 48.742188 1.148438 Z M 48.742188 -15.863281 C 15.863281 -15.863281 15.863281 -66.675781 48.742188 -66.675781 C 81.621094 -66.675781 81.621094 -15.863281 48.742188 -15.863281 Z M 48.742188 -15.863281 "/></g></g></g><g fill="#000000" fill-opacity="1"><g transform="translate(187.219367, 432.683348)"><g><path d="M 51.730469 0 L 51.730469 -16.4375 L 25.636719 -16.4375 L 25.636719 -32.878906 L 47.25 -32.878906 L 47.25 -49.316406 L 25.636719 -49.316406 L 25.636719 -65.757812 L 50.351562 -65.757812 L 50.351562 -82.195312 L 9.195312 -82.195312 L 9.195312 0 Z M 51.730469 0 "/></g></g></g><g fill="#000000" fill-opacity="1"><g transform="translate(245.153809, 432.683348)"><g><path d="M 29.316406 0 L 45.640625 0 L 45.640625 -37.015625 L 74.378906 -82.195312 L 54.261719 -82.195312 L 37.476562 -53.917969 L 20.691406 -82.195312 L 0.691406 -82.195312 L 29.316406 -37.015625 Z M 29.316406 0 "/></g></g></g><g fill="#000000" fill-opacity="1"><g transform="translate(319.755894, 432.683348)"><g/></g></g><g fill="#000000" fill-opacity="1"><g transform="translate(352.401492, 432.683348)"><g><path d="M 1.839844 0 L 20.460938 0 L 23.683594 -8.851562 L 50.925781 -8.851562 L 54.261719 0 L 72.769531 0 L 38.167969 -85.183594 L 36.441406 -85.183594 Z M 29.660156 -24.257812 L 37.363281 -45.640625 L 44.835938 -24.257812 Z M 29.660156 -24.257812 "/></g></g></g><g fill="#000000" fill-opacity="1"><g transform="translate(427.463378, 432.683348)"><g><path d="M 46.902344 -47.363281 L 14.484375 -83.460938 L 9.195312 -83.460938 L 9.195312 0 L 25.867188 0 L 25.867188 -45.867188 L 46.902344 -23.796875 L 67.941406 -45.867188 L 67.828125 0 L 84.496094 0 L 84.496094 -83.460938 L 79.324219 -83.460938 Z M 46.902344 -47.363281 "/></g></g></g><g fill="#000000" fill-opacity="1"><g transform="translate(521.261988, 432.683348)"><g><path d="M 25.636719 0 L 25.636719 -31.382812 L 41.5 -31.382812 C 73.34375 -31.382812 73.460938 -82.082031 41.5 -82.082031 L 9.195312 -82.082031 L 9.195312 0 Z M 25.636719 -47.363281 L 25.636719 -65.757812 L 40.121094 -65.757812 C 51.15625 -65.757812 51.15625 -47.363281 40.121094 -47.363281 Z M 25.636719 -47.363281 "/></g></g></g><g fill="#000000" fill-opacity="1"><g transform="translate(590.576422, 432.683348)"><g><path d="M 50.238281 -65.757812 L 50.238281 -82.195312 L 9.195312 -82.195312 L 9.195312 0 L 25.636719 0 L 25.636719 -32.878906 L 46.558594 -32.878906 L 46.558594 -49.316406 L 25.636719 -49.316406 L 25.636719 -65.757812 Z M 50.238281 -65.757812 "/></g></g></g><g fill="#000000" fill-opacity="1"><g transform="translate(645.177325, 432.683348)"><g><path d="M 51.730469 0 L 51.730469 -16.4375 L 25.636719 -16.4375 L 25.636719 -32.878906 L 47.25 -32.878906 L 47.25 -49.316406 L 25.636719 -49.316406 L 25.636719 -65.757812 L 50.351562 -65.757812 L 50.351562 -82.195312 L 9.195312 -82.195312 L 9.195312 0 Z M 51.730469 0 "/></g></g></g><g fill="#000000" fill-opacity="1"><g transform="translate(703.111755, 432.683348)"><g><path d="M 50.121094 0 L 68.746094 0 L 49.664062 -33.914062 C 73.804688 -40.925781 70.929688 -82.195312 41.617188 -82.195312 L 9.195312 -82.195312 L 9.195312 0 L 25.636719 0 L 25.636719 -31.382812 L 33.566406 -31.382812 Z M 25.636719 -47.363281 L 25.636719 -65.757812 L 40.121094 -65.757812 C 51.273438 -65.757812 51.273438 -47.363281 40.121094 -47.363281 Z M 25.636719 -47.363281 "/></g></g></g><g fill="#000000" fill-opacity="1"><g transform="translate(304.097314, 493.786603)"><g><path d="M 5.90625 0.234375 C 4.882812 0.234375 3.929688 0.0664062 3.046875 -0.265625 C 2.171875 -0.597656 1.410156 -1.109375 0.765625 -1.796875 L 1.4375 -2.953125 C 2.144531 -2.296875 2.851562 -1.816406 3.5625 -1.515625 C 4.269531 -1.222656 5.023438 -1.078125 5.828125 -1.078125 C 6.804688 -1.078125 7.597656 -1.269531 8.203125 -1.65625 C 8.816406 -2.050781 9.125 -2.617188 9.125 -3.359375 C 9.125 -3.859375 8.972656 -4.238281 8.671875 -4.5 C 8.378906 -4.757812 7.957031 -4.972656 7.40625 -5.140625 C 6.851562 -5.316406 6.191406 -5.5 5.421875 -5.6875 C 4.554688 -5.925781 3.832031 -6.175781 3.25 -6.4375 C 2.664062 -6.707031 2.222656 -7.046875 1.921875 -7.453125 C 1.628906 -7.859375 1.484375 -8.390625 1.484375 -9.046875 C 1.484375 -9.859375 1.6875 -10.53125 2.09375 -11.0625 C 2.507812 -11.601562 3.070312 -12.015625 3.78125 -12.296875 C 4.488281 -12.578125 5.285156 -12.71875 6.171875 -12.71875 C 7.128906 -12.71875 7.972656 -12.566406 8.703125 -12.265625 C 9.441406 -11.960938 10.046875 -11.535156 10.515625 -10.984375 L 9.71875 -9.890625 C 9.269531 -10.398438 8.738281 -10.78125 8.125 -11.03125 C 7.507812 -11.28125 6.828125 -11.40625 6.078125 -11.40625 C 5.554688 -11.40625 5.0625 -11.332031 4.59375 -11.1875 C 4.132812 -11.050781 3.757812 -10.828125 3.46875 -10.515625 C 3.175781 -10.210938 3.03125 -9.785156 3.03125 -9.234375 C 3.03125 -8.785156 3.140625 -8.4375 3.359375 -8.1875 C 3.585938 -7.945312 3.925781 -7.738281 4.375 -7.5625 C 4.820312 -7.394531 5.375 -7.21875 6.03125 -7.03125 C 6.96875 -6.769531 7.785156 -6.507812 8.484375 -6.25 C 9.191406 -5.988281 9.738281 -5.648438 10.125 -5.234375 C 10.507812 -4.816406 10.703125 -4.234375 10.703125 -3.484375 C 10.703125 -2.316406 10.257812 -1.40625 9.375 -0.75 C 8.5 -0.09375 7.34375 0.234375 5.90625 0.234375 Z M 5.90625 0.234375 "/></g></g></g><g fill="#000000" fill-opacity="1"><g transform="translate(315.689331, 493.786603)"><g><path d="M 7.125 0.234375 C 6.226562 0.234375 5.398438 0.0625 4.640625 -0.28125 C 3.878906 -0.625 3.222656 -1.09375 2.671875 -1.6875 C 2.117188 -2.289062 1.691406 -2.976562 1.390625 -3.75 C 1.085938 -4.53125 0.9375 -5.351562 0.9375 -6.21875 C 0.9375 -7.113281 1.085938 -7.945312 1.390625 -8.71875 C 1.691406 -9.5 2.125 -10.1875 2.6875 -10.78125 C 3.25 -11.382812 3.910156 -11.859375 4.671875 -12.203125 C 5.429688 -12.546875 6.257812 -12.71875 7.15625 -12.71875 C 8.050781 -12.71875 8.875 -12.546875 9.625 -12.203125 C 10.375 -11.859375 11.03125 -11.382812 11.59375 -10.78125 C 12.15625 -10.1875 12.585938 -9.5 12.890625 -8.71875 C 13.191406 -7.945312 13.34375 -7.113281 13.34375 -6.21875 C 13.34375 -5.351562 13.191406 -4.53125 12.890625 -3.75 C 12.585938 -2.976562 12.160156 -2.289062 11.609375 -1.6875 C 11.054688 -1.09375 10.398438 -0.625 9.640625 -0.28125 C 8.878906 0.0625 8.039062 0.234375 7.125 0.234375 Z M 2.59375 -6.1875 C 2.59375 -5.257812 2.796875 -4.414062 3.203125 -3.65625 C 3.609375 -2.894531 4.15625 -2.296875 4.84375 -1.859375 C 5.53125 -1.421875 6.289062 -1.203125 7.125 -1.203125 C 7.957031 -1.203125 8.71875 -1.425781 9.40625 -1.875 C 10.09375 -2.320312 10.644531 -2.929688 11.0625 -3.703125 C 11.476562 -4.484375 11.6875 -5.328125 11.6875 -6.234375 C 11.6875 -7.160156 11.476562 -8.007812 11.0625 -8.78125 C 10.644531 -9.550781 10.09375 -10.160156 9.40625 -10.609375 C 8.71875 -11.054688 7.957031 -11.28125 7.125 -11.28125 C 6.289062 -11.28125 5.535156 -11.046875 4.859375 -10.578125 C 4.179688 -10.117188 3.632812 -9.507812 3.21875 -8.75 C 2.800781 -7.988281 2.59375 -7.132812 2.59375 -6.1875 Z M 2.59375 -6.1875 "/></g></g></g><g fill="#000000" fill-opacity="1"><g transform="translate(329.96936, 493.786603)"><g><path d="M 2.40625 0 L 2.40625 -11.203125 L 0.671875 -11.203125 L 0.671875 -12.5 L 2.40625 -12.5 L 2.40625 -12.84375 C 2.40625 -13.863281 2.550781 -14.738281 2.84375 -15.46875 C 3.132812 -16.207031 3.554688 -16.773438 4.109375 -17.171875 C 4.660156 -17.566406 5.316406 -17.765625 6.078125 -17.765625 C 6.566406 -17.765625 7.039062 -17.691406 7.5 -17.546875 C 7.96875 -17.398438 8.375 -17.207031 8.71875 -16.96875 L 8.203125 -15.796875 C 7.992188 -15.972656 7.722656 -16.109375 7.390625 -16.203125 C 7.054688 -16.296875 6.722656 -16.34375 6.390625 -16.34375 C 5.628906 -16.34375 5.046875 -16.046875 4.640625 -15.453125 C 4.234375 -14.859375 4.03125 -14.003906 4.03125 -12.890625 L 4.03125 -12.5 L 7.484375 -12.5 L 7.484375 -11.203125 L 4.03125 -11.203125 L 4.03125 0 Z M 2.40625 0 "/></g></g></g><g fill="#000000" fill-opacity="1"><g transform="translate(337.889381, 493.786603)"><g><path d="M 7.796875 -0.59375 C 7.671875 -0.550781 7.472656 -0.460938 7.203125 -0.328125 C 6.929688 -0.203125 6.601562 -0.09375 6.21875 0 C 5.832031 0.09375 5.414062 0.140625 4.96875 0.140625 C 4.5 0.140625 4.0625 0.0507812 3.65625 -0.125 C 3.25 -0.300781 2.925781 -0.566406 2.6875 -0.921875 C 2.445312 -1.285156 2.328125 -1.726562 2.328125 -2.25 L 2.328125 -11.203125 L 0.59375 -11.203125 L 0.59375 -12.5 L 2.328125 -12.5 L 2.328125 -16.734375 L 3.953125 -16.734375 L 3.953125 -12.5 L 6.84375 -12.5 L 6.84375 -11.203125 L 3.953125 -11.203125 L 3.953125 -2.71875 C 3.992188 -2.269531 4.160156 -1.929688 4.453125 -1.703125 C 4.742188 -1.484375 5.082031 -1.375 5.46875 -1.375 C 5.914062 -1.375 6.320312 -1.445312 6.6875 -1.59375 C 7.0625 -1.75 7.289062 -1.859375 7.375 -1.921875 Z M 7.796875 -0.59375 "/></g></g></g><g fill="#000000" fill-opacity="1"><g transform="translate(345.929393, 493.786603)"><g><path d="M 17.546875 -12.5 L 19.15625 -12.5 L 13.78125 0 L 12.359375 0 L 9.75 -6.21875 L 7.15625 0 L 5.734375 0 L 0.359375 -12.5 L 1.9375 -12.5 L 6.5 -1.6875 L 8.8125 -7.3125 L 6.703125 -12.484375 L 8.15625 -12.484375 L 9.75 -8.421875 L 11.359375 -12.484375 L 12.796875 -12.484375 L 10.703125 -7.3125 L 13.015625 -1.6875 Z M 17.546875 -12.5 "/></g></g></g><g fill="#000000" fill-opacity="1"><g transform="translate(365.441431, 493.786603)"><g><path d="M 0.796875 -3.59375 C 0.796875 -4.382812 1.019531 -5.0625 1.46875 -5.625 C 1.914062 -6.195312 2.535156 -6.640625 3.328125 -6.953125 C 4.117188 -7.265625 5.035156 -7.421875 6.078125 -7.421875 C 6.679688 -7.421875 7.3125 -7.367188 7.96875 -7.265625 C 8.625 -7.171875 9.207031 -7.03125 9.71875 -6.84375 L 9.71875 -7.890625 C 9.71875 -8.953125 9.40625 -9.796875 8.78125 -10.421875 C 8.15625 -11.046875 7.289062 -11.359375 6.1875 -11.359375 C 5.519531 -11.359375 4.859375 -11.234375 4.203125 -10.984375 C 3.554688 -10.734375 2.882812 -10.367188 2.1875 -9.890625 L 1.5625 -11.046875 C 2.375 -11.597656 3.171875 -12.015625 3.953125 -12.296875 C 4.742188 -12.578125 5.546875 -12.71875 6.359375 -12.71875 C 7.890625 -12.71875 9.101562 -12.273438 10 -11.390625 C 10.90625 -10.515625 11.359375 -9.300781 11.359375 -7.75 L 11.359375 -1.96875 C 11.359375 -1.738281 11.40625 -1.570312 11.5 -1.46875 C 11.59375 -1.363281 11.742188 -1.304688 11.953125 -1.296875 L 11.953125 0 C 11.773438 0.0195312 11.617188 0.0351562 11.484375 0.046875 C 11.359375 0.0664062 11.265625 0.0664062 11.203125 0.046875 C 10.804688 0.0351562 10.503906 -0.0859375 10.296875 -0.328125 C 10.085938 -0.578125 9.972656 -0.835938 9.953125 -1.109375 L 9.9375 -2.015625 C 9.375 -1.296875 8.644531 -0.738281 7.75 -0.34375 C 6.851562 0.0390625 5.941406 0.234375 5.015625 0.234375 C 4.210938 0.234375 3.488281 0.0625 2.84375 -0.28125 C 2.195312 -0.625 1.691406 -1.085938 1.328125 -1.671875 C 0.972656 -2.253906 0.796875 -2.894531 0.796875 -3.59375 Z M 9.171875 -2.640625 C 9.347656 -2.859375 9.484375 -3.070312 9.578125 -3.28125 C 9.671875 -3.488281 9.71875 -3.675781 9.71875 -3.84375 L 9.71875 -5.65625 C 9.175781 -5.863281 8.613281 -6.023438 8.03125 -6.140625 C 7.445312 -6.253906 6.859375 -6.3125 6.265625 -6.3125 C 5.097656 -6.3125 4.15625 -6.078125 3.4375 -5.609375 C 2.71875 -5.148438 2.359375 -4.519531 2.359375 -3.71875 C 2.359375 -3.257812 2.476562 -2.820312 2.71875 -2.40625 C 2.957031 -2 3.304688 -1.664062 3.765625 -1.40625 C 4.234375 -1.144531 4.78125 -1.015625 5.40625 -1.015625 C 6.1875 -1.015625 6.914062 -1.164062 7.59375 -1.46875 C 8.269531 -1.769531 8.796875 -2.160156 9.171875 -2.640625 Z M 9.171875 -2.640625 "/></g></g></g><g fill="#000000" fill-opacity="1"><g transform="translate(378.521455, 493.786603)"><g><path d="M 8.046875 -11.0625 C 6.953125 -11.03125 5.992188 -10.722656 5.171875 -10.140625 C 4.347656 -9.566406 3.769531 -8.78125 3.4375 -7.78125 L 3.4375 0 L 1.796875 0 L 1.796875 -12.5 L 3.34375 -12.5 L 3.34375 -9.5 C 3.769531 -10.382812 4.335938 -11.097656 5.046875 -11.640625 C 5.765625 -12.179688 6.519531 -12.484375 7.3125 -12.546875 C 7.476562 -12.566406 7.617188 -12.578125 7.734375 -12.578125 C 7.859375 -12.578125 7.960938 -12.566406 8.046875 -12.546875 Z M 8.046875 -11.0625 "/></g></g></g><g fill="#000000" fill-opacity="1"><g transform="translate(386.945473, 493.786603)"><g><path d="M 7.203125 0.234375 C 6.304688 0.234375 5.472656 0.0625 4.703125 -0.28125 C 3.929688 -0.625 3.265625 -1.09375 2.703125 -1.6875 C 2.148438 -2.289062 1.71875 -2.984375 1.40625 -3.765625 C 1.09375 -4.546875 0.9375 -5.382812 0.9375 -6.28125 C 0.9375 -7.457031 1.203125 -8.53125 1.734375 -9.5 C 2.273438 -10.476562 3.015625 -11.257812 3.953125 -11.84375 C 4.898438 -12.425781 5.972656 -12.71875 7.171875 -12.71875 C 8.410156 -12.71875 9.488281 -12.421875 10.40625 -11.828125 C 11.320312 -11.234375 12.046875 -10.453125 12.578125 -9.484375 C 13.109375 -8.523438 13.375 -7.46875 13.375 -6.3125 C 13.375 -6.1875 13.375 -6.0625 13.375 -5.9375 C 13.375 -5.820312 13.363281 -5.726562 13.34375 -5.65625 L 2.640625 -5.65625 C 2.722656 -4.757812 2.972656 -3.960938 3.390625 -3.265625 C 3.816406 -2.578125 4.367188 -2.03125 5.046875 -1.625 C 5.734375 -1.21875 6.472656 -1.015625 7.265625 -1.015625 C 8.085938 -1.015625 8.863281 -1.21875 9.59375 -1.625 C 10.320312 -2.039062 10.828125 -2.585938 11.109375 -3.265625 L 12.53125 -2.875 C 12.269531 -2.28125 11.875 -1.742188 11.34375 -1.265625 C 10.820312 -0.785156 10.203125 -0.414062 9.484375 -0.15625 C 8.773438 0.101562 8.015625 0.234375 7.203125 0.234375 Z M 2.59375 -6.84375 L 11.828125 -6.84375 C 11.765625 -7.75 11.519531 -8.546875 11.09375 -9.234375 C 10.675781 -9.921875 10.125 -10.460938 9.4375 -10.859375 C 8.757812 -11.253906 8.015625 -11.453125 7.203125 -11.453125 C 6.378906 -11.453125 5.628906 -11.253906 4.953125 -10.859375 C 4.285156 -10.460938 3.738281 -9.914062 3.3125 -9.21875 C 2.894531 -8.53125 2.65625 -7.738281 2.59375 -6.84375 Z M 2.59375 -6.84375 "/></g></g></g><g fill="#000000" fill-opacity="1"><g transform="translate(401.033504, 493.786603)"><g/></g></g><g fill="#000000" fill-opacity="1"><g transform="translate(407.153518, 493.786603)"><g><path d="M 7.203125 0.234375 C 6.304688 0.234375 5.472656 0.0625 4.703125 -0.28125 C 3.929688 -0.625 3.265625 -1.09375 2.703125 -1.6875 C 2.148438 -2.289062 1.71875 -2.984375 1.40625 -3.765625 C 1.09375 -4.546875 0.9375 -5.382812 0.9375 -6.28125 C 0.9375 -7.457031 1.203125 -8.53125 1.734375 -9.5 C 2.273438 -10.476562 3.015625 -11.257812 3.953125 -11.84375 C 4.898438 -12.425781 5.972656 -12.71875 7.171875 -12.71875 C 8.410156 -12.71875 9.488281 -12.421875 10.40625 -11.828125 C 11.320312 -11.234375 12.046875 -10.453125 12.578125 -9.484375 C 13.109375 -8.523438 13.375 -7.46875 13.375 -6.3125 C 13.375 -6.1875 13.375 -6.0625 13.375 -5.9375 C 13.375 -5.820312 13.363281 -5.726562 13.34375 -5.65625 L 2.640625 -5.65625 C 2.722656 -4.757812 2.972656 -3.960938 3.390625 -3.265625 C 3.816406 -2.578125 4.367188 -2.03125 5.046875 -1.625 C 5.734375 -1.21875 6.472656 -1.015625 7.265625 -1.015625 C 8.085938 -1.015625 8.863281 -1.21875 9.59375 -1.625 C 10.320312 -2.039062 10.828125 -2.585938 11.109375 -3.265625 L 12.53125 -2.875 C 12.269531 -2.28125 11.875 -1.742188 11.34375 -1.265625 C 10.820312 -0.785156 10.203125 -0.414062 9.484375 -0.15625 C 8.773438 0.101562 8.015625 0.234375 7.203125 0.234375 Z M 2.59375 -6.84375 L 11.828125 -6.84375 C 11.765625 -7.75 11.519531 -8.546875 11.09375 -9.234375 C 10.675781 -9.921875 10.125 -10.460938 9.4375 -10.859375 C 8.757812 -11.253906 8.015625 -11.453125 7.203125 -11.453125 C 6.378906 -11.453125 5.628906 -11.253906 4.953125 -10.859375 C 4.285156 -10.460938 3.738281 -9.914062 3.3125 -9.21875 C 2.894531 -8.53125 2.65625 -7.738281 2.59375 -6.84375 Z M 2.59375 -6.84375 "/></g></g></g><g fill="#000000" fill-opacity="1"><g transform="translate(421.241549, 493.786603)"><g><path d="M 12.3125 0 L 10.6875 0 L 10.6875 -6.984375 C 10.6875 -8.453125 10.46875 -9.523438 10.03125 -10.203125 C 9.601562 -10.890625 8.921875 -11.234375 7.984375 -11.234375 C 7.347656 -11.234375 6.71875 -11.078125 6.09375 -10.765625 C 5.46875 -10.453125 4.921875 -10.023438 4.453125 -9.484375 C 3.984375 -8.953125 3.644531 -8.34375 3.4375 -7.65625 L 3.4375 0 L 1.796875 0 L 1.796875 -12.5 L 3.28125 -12.5 L 3.28125 -9.671875 C 3.625 -10.273438 4.066406 -10.804688 4.609375 -11.265625 C 5.148438 -11.722656 5.765625 -12.078125 6.453125 -12.328125 C 7.140625 -12.585938 7.851562 -12.71875 8.59375 -12.71875 C 9.28125 -12.71875 9.863281 -12.585938 10.34375 -12.328125 C 10.820312 -12.078125 11.203125 -11.710938 11.484375 -11.234375 C 11.773438 -10.765625 11.984375 -10.195312 12.109375 -9.53125 C 12.242188 -8.875 12.3125 -8.132812 12.3125 -7.3125 Z M 12.3125 0 "/></g></g></g><g fill="#000000" fill-opacity="1"><g transform="translate(435.233575, 493.786603)"><g><path d="M 6.8125 0.171875 C 5.96875 0.171875 5.1875 -0.00390625 4.46875 -0.359375 C 3.75 -0.710938 3.128906 -1.1875 2.609375 -1.78125 C 2.085938 -2.382812 1.679688 -3.066406 1.390625 -3.828125 C 1.097656 -4.597656 0.953125 -5.394531 0.953125 -6.21875 C 0.953125 -7.09375 1.09375 -7.914062 1.375 -8.6875 C 1.65625 -9.46875 2.054688 -10.160156 2.578125 -10.765625 C 3.097656 -11.378906 3.707031 -11.859375 4.40625 -12.203125 C 5.113281 -12.546875 5.898438 -12.71875 6.765625 -12.71875 C 7.835938 -12.71875 8.769531 -12.445312 9.5625 -11.90625 C 10.351562 -11.363281 11.019531 -10.691406 11.5625 -9.890625 L 11.5625 -12.5 L 13.03125 -12.5 L 13.03125 0.046875 C 13.03125 1.203125 12.753906 2.175781 12.203125 2.96875 C 11.648438 3.757812 10.90625 4.351562 9.96875 4.75 C 9.03125 5.15625 8.007812 5.359375 6.90625 5.359375 C 5.488281 5.359375 4.335938 5.097656 3.453125 4.578125 C 2.578125 4.066406 1.859375 3.378906 1.296875 2.515625 L 2.296875 1.734375 C 2.796875 2.515625 3.457031 3.097656 4.28125 3.484375 C 5.101562 3.867188 5.976562 4.0625 6.90625 4.0625 C 7.726562 4.0625 8.476562 3.910156 9.15625 3.609375 C 9.832031 3.316406 10.375 2.875 10.78125 2.28125 C 11.195312 1.6875 11.40625 0.941406 11.40625 0.046875 L 11.40625 -2.421875 C 10.925781 -1.640625 10.269531 -1.007812 9.4375 -0.53125 C 8.601562 -0.0625 7.726562 0.171875 6.8125 0.171875 Z M 7.265625 -1.203125 C 7.765625 -1.203125 8.242188 -1.289062 8.703125 -1.46875 C 9.160156 -1.644531 9.578125 -1.878906 9.953125 -2.171875 C 10.335938 -2.460938 10.65625 -2.789062 10.90625 -3.15625 C 11.164062 -3.53125 11.332031 -3.910156 11.40625 -4.296875 L 11.40625 -8.15625 C 11.164062 -8.769531 10.820312 -9.3125 10.375 -9.78125 C 9.925781 -10.25 9.414062 -10.613281 8.84375 -10.875 C 8.269531 -11.144531 7.679688 -11.28125 7.078125 -11.28125 C 6.378906 -11.28125 5.753906 -11.128906 5.203125 -10.828125 C 4.648438 -10.535156 4.179688 -10.144531 3.796875 -9.65625 C 3.421875 -9.164062 3.128906 -8.617188 2.921875 -8.015625 C 2.710938 -7.410156 2.609375 -6.800781 2.609375 -6.1875 C 2.609375 -5.519531 2.726562 -4.882812 2.96875 -4.28125 C 3.21875 -3.6875 3.550781 -3.148438 3.96875 -2.671875 C 4.394531 -2.203125 4.890625 -1.835938 5.453125 -1.578125 C 6.023438 -1.328125 6.628906 -1.203125 7.265625 -1.203125 Z M 7.265625 -1.203125 "/></g></g></g><g fill="#000000" fill-opacity="1"><g transform="translate(450.065609, 493.786603)"><g><path d="M 1.796875 0 L 1.796875 -12.5 L 3.4375 -12.5 L 3.4375 0 Z M 1.796875 -15.125 L 1.796875 -17.515625 L 3.4375 -17.515625 L 3.4375 -15.125 Z M 1.796875 -15.125 "/></g></g></g><g fill="#000000" fill-opacity="1"><g transform="translate(455.297619, 493.786603)"><g><path d="M 12.3125 0 L 10.6875 0 L 10.6875 -6.984375 C 10.6875 -8.453125 10.46875 -9.523438 10.03125 -10.203125 C 9.601562 -10.890625 8.921875 -11.234375 7.984375 -11.234375 C 7.347656 -11.234375 6.71875 -11.078125 6.09375 -10.765625 C 5.46875 -10.453125 4.921875 -10.023438 4.453125 -9.484375 C 3.984375 -8.953125 3.644531 -8.34375 3.4375 -7.65625 L 3.4375 0 L 1.796875 0 L 1.796875 -12.5 L 3.28125 -12.5 L 3.28125 -9.671875 C 3.625 -10.273438 4.066406 -10.804688 4.609375 -11.265625 C 5.148438 -11.722656 5.765625 -12.078125 6.453125 -12.328125 C 7.140625 -12.585938 7.851562 -12.71875 8.59375 -12.71875 C 9.28125 -12.71875 9.863281 -12.585938 10.34375 -12.328125 C 10.820312 -12.078125 11.203125 -11.710938 11.484375 -11.234375 C 11.773438 -10.765625 11.984375 -10.195312 12.109375 -9.53125 C 12.242188 -8.875 12.3125 -8.132812 12.3125 -7.3125 Z M 12.3125 0 "/></g></g></g><g fill="#000000" fill-opacity="1"><g transform="translate(469.289645, 493.786603)"><g><path d="M 7.203125 0.234375 C 6.304688 0.234375 5.472656 0.0625 4.703125 -0.28125 C 3.929688 -0.625 3.265625 -1.09375 2.703125 -1.6875 C 2.148438 -2.289062 1.71875 -2.984375 1.40625 -3.765625 C 1.09375 -4.546875 0.9375 -5.382812 0.9375 -6.28125 C 0.9375 -7.457031 1.203125 -8.53125 1.734375 -9.5 C 2.273438 -10.476562 3.015625 -11.257812 3.953125 -11.84375 C 4.898438 -12.425781 5.972656 -12.71875 7.171875 -12.71875 C 8.410156 -12.71875 9.488281 -12.421875 10.40625 -11.828125 C 11.320312 -11.234375 12.046875 -10.453125 12.578125 -9.484375 C 13.109375 -8.523438 13.375 -7.46875 13.375 -6.3125 C 13.375 -6.1875 13.375 -6.0625 13.375 -5.9375 C 13.375 -5.820312 13.363281 -5.726562 13.34375 -5.65625 L 2.640625 -5.65625 C 2.722656 -4.757812 2.972656 -3.960938 3.390625 -3.265625 C 3.816406 -2.578125 4.367188 -2.03125 5.046875 -1.625 C 5.734375 -1.21875 6.472656 -1.015625 7.265625 -1.015625 C 8.085938 -1.015625 8.863281 -1.21875 9.59375 -1.625 C 10.320312 -2.039062 10.828125 -2.585938 11.109375 -3.265625 L 12.53125 -2.875 C 12.269531 -2.28125 11.875 -1.742188 11.34375 -1.265625 C 10.820312 -0.785156 10.203125 -0.414062 9.484375 -0.15625 C 8.773438 0.101562 8.015625 0.234375 7.203125 0.234375 Z M 2.59375 -6.84375 L 11.828125 -6.84375 C 11.765625 -7.75 11.519531 -8.546875 11.09375 -9.234375 C 10.675781 -9.921875 10.125 -10.460938 9.4375 -10.859375 C 8.757812 -11.253906 8.015625 -11.453125 7.203125 -11.453125 C 6.378906 -11.453125 5.628906 -11.253906 4.953125 -10.859375 C 4.285156 -10.460938 3.738281 -9.914062 3.3125 -9.21875 C 2.894531 -8.53125 2.65625 -7.738281 2.59375 -6.84375 Z M 2.59375 -6.84375 "/></g></g></g><g fill="#000000" fill-opacity="1"><g transform="translate(483.377676, 493.786603)"><g><path d="M 7.203125 0.234375 C 6.304688 0.234375 5.472656 0.0625 4.703125 -0.28125 C 3.929688 -0.625 3.265625 -1.09375 2.703125 -1.6875 C 2.148438 -2.289062 1.71875 -2.984375 1.40625 -3.765625 C 1.09375 -4.546875 0.9375 -5.382812 0.9375 -6.28125 C 0.9375 -7.457031 1.203125 -8.53125 1.734375 -9.5 C 2.273438 -10.476562 3.015625 -11.257812 3.953125 -11.84375 C 4.898438 -12.425781 5.972656 -12.71875 7.171875 -12.71875 C 8.410156 -12.71875 9.488281 -12.421875 10.40625 -11.828125 C 11.320312 -11.234375 12.046875 -10.453125 12.578125 -9.484375 C 13.109375 -8.523438 13.375 -7.46875 13.375 -6.3125 C 13.375 -6.1875 13.375 -6.0625 13.375 -5.9375 C 13.375 -5.820312 13.363281 -5.726562 13.34375 -5.65625 L 2.640625 -5.65625 C 2.722656 -4.757812 2.972656 -3.960938 3.390625 -3.265625 C 3.816406 -2.578125 4.367188 -2.03125 5.046875 -1.625 C 5.734375 -1.21875 6.472656 -1.015625 7.265625 -1.015625 C 8.085938 -1.015625 8.863281 -1.21875 9.59375 -1.625 C 10.320312 -2.039062 10.828125 -2.585938 11.109375 -3.265625 L 12.53125 -2.875 C 12.269531 -2.28125 11.875 -1.742188 11.34375 -1.265625 C 10.820312 -0.785156 10.203125 -0.414062 9.484375 -0.15625 C 8.773438 0.101562 8.015625 0.234375 7.203125 0.234375 Z M 2.59375 -6.84375 L 11.828125 -6.84375 C 11.765625 -7.75 11.519531 -8.546875 11.09375 -9.234375 C 10.675781 -9.921875 10.125 -10.460938 9.4375 -10.859375 C 8.757812 -11.253906 8.015625 -11.453125 7.203125 -11.453125 C 6.378906 -11.453125 5.628906 -11.253906 4.953125 -10.859375 C 4.285156 -10.460938 3.738281 -9.914062 3.3125 -9.21875 C 2.894531 -8.53125 2.65625 -7.738281 2.59375 -6.84375 Z M 2.59375 -6.84375 "/></g></g></g><g fill="#000000" fill-opacity="1"><g transform="translate(497.465696, 493.786603)"><g><path d="M 8.046875 -11.0625 C 6.953125 -11.03125 5.992188 -10.722656 5.171875 -10.140625 C 4.347656 -9.566406 3.769531 -8.78125 3.4375 -7.78125 L 3.4375 0 L 1.796875 0 L 1.796875 -12.5 L 3.34375 -12.5 L 3.34375 -9.5 C 3.769531 -10.382812 4.335938 -11.097656 5.046875 -11.640625 C 5.765625 -12.179688 6.519531 -12.484375 7.3125 -12.546875 C 7.476562 -12.566406 7.617188 -12.578125 7.734375 -12.578125 C 7.859375 -12.578125 7.960938 -12.566406 8.046875 -12.546875 Z M 8.046875 -11.0625 "/></g></g></g><path stroke-linecap="butt" transform="matrix(0.75, 0, 0, 0.75, 80.999999, 486.286604)" fill="none" stroke-linejoin="miter" d="M 0.000000766667 0.99807 L 248.895847 0.99807 " stroke="#000000" stroke-width="2" stroke-opacity="1" stroke-miterlimit="4"/><path stroke-linecap="butt" transform="matrix(0.75, 0, 0, 0.75, 542.328384, 485.536604)" fill="none" stroke-linejoin="miter" d="M -0.000345622 0.99807 L 248.8955 0.99807 " stroke="#000000" stroke-width="2" stroke-opacity="1" stroke-miterlimit="4"/></svg>